<?xml version="1.0" encoding="utf-8"?>
<!-- Generator: Adobe Illustrator 19.0.0, SVG Export Plug-In . SVG Version: 6.00 Build 0)  -->
<svg version="1.1" id="Layer_1" xmlns="http://www.w3.org/2000/svg" xmlns:xlink="http://www.w3.org/1999/xlink" x="0px" y="0px"
	 viewBox="-240 342.4 107.8 107.8" style="enable-background:new -240 342.4 107.8 107.8;" xml:space="preserve">
<style type="text/css">
	.st0{fill:#223B53;}
	.st1{fill:#EEEEEE;}
	.st2{fill:#4EB2D0;}
</style>
<circle class="st0" cx="-186.1" cy="396.3" r="53.9"/>
<ellipse class="st1" cx="-186.4" cy="394.8" rx="32.1" ry="23.6"/>
<path class="st1" d="M-180.6,411.9c-0.9,0.4-0.6,1.7,0.3,1.8c3.4,0.2,6.5,1.6,8.7,4.1c1.6,1.7,2.3,3.7,2.7,5.3
	c0.2,0.9,1.5,1,1.8,0.1c0.8-2.3,1.5-5.2,1.6-8.6c0.1-3.3-0.4-6.1-1-8.1c-0.2-0.6-0.8-0.8-1.3-0.6
	C-171.9,407.8-176.3,409.9-180.6,411.9z"/>
<path class="st2" d="M-200.8,398.4h-2.1c-1.1,0-2-0.9-2-2v-2.1c0-1.1,0.9-2,2-2h2.1c1.1,0,2,0.9,2,2v2.1
	C-198.8,397.5-199.7,398.4-200.8,398.4z"/>
<path class="st2" d="M-190.7,398.4h-2.1c-1.1,0-2-0.9-2-2v-2.1c0-1.1,0.9-2,2-2h2.1c1.1,0,2,0.9,2,2v2.1
	C-188.7,397.5-189.6,398.4-190.7,398.4z"/>
<path class="st2" d="M-180.6,398.4h-2.1c-1.1,0-2-0.9-2-2v-2.1c0-1.1,0.9-2,2-2h2.1c1.1,0,2,0.9,2,2v2.1
	C-178.6,397.5-179.5,398.4-180.6,398.4z"/>
<path class="st2" d="M-170.6,398.4h-2.1c-1.1,0-2-0.9-2-2v-2.1c0-1.1,0.9-2,2-2h2.1c1.1,0,2,0.9,2,2v2.1
	C-168.6,397.5-169.5,398.4-170.6,398.4z"/>
</svg>
