<?xml version="1.0" encoding="utf-8"?>
<!-- Generator: Adobe Illustrator 19.0.0, SVG Export Plug-In . SVG Version: 6.00 Build 0)  -->
<svg version="1.1" id="Layer_1" xmlns="http://www.w3.org/2000/svg" xmlns:xlink="http://www.w3.org/1999/xlink" x="0px" y="0px"
	 viewBox="-239.9 343.5 107.8 107.8" style="enable-background:new -239.9 343.5 107.8 107.8;" xml:space="preserve">
<style type="text/css">
	.st0{fill:#223B53;}
	.st1{fill:#E55E5E;}
	.st2{fill:#EA7E7E;}
</style>
<circle class="st0" cx="-186" cy="397.4" r="53.9"/>
<path class="st1" d="M-173.1,376.5c-4.9,0-9.3,2.1-12.4,5.4c-3-2.8-7-4.5-11.5-4.5c-9.3,0-16.9,7.5-16.9,16.9
	c0,12.1,23,32.6,28.8,33.3c6-1.5,28.8-21,28.8-34.2C-156.2,384-163.8,376.5-173.1,376.5z"/>
<path class="st2" d="M-173.1,376.5c-4.9,0-9.3,2.1-12.4,5.4l-0.1-0.1c-1.3,2.6-2.3,5.5-2.6,10.4c-0.4,6.2,6.1,16.7,5.9,23.5
	c-0.1,4.2,0,4.9-2.7,11.8c6-1.5,28.8-21,28.8-34.2C-156.2,384-163.8,376.5-173.1,376.5z"/>
</svg>
