<?xml version="1.0" standalone="no"?>
<!DOCTYPE svg PUBLIC "-//W3C//DTD SVG 1.1//EN" "http://www.w3.org/Graphics/SVG/1.1/DTD/svg11.dtd">
<svg width="100%" height="100%" viewBox="0 0 120 120" version="1.1" xmlns="http://www.w3.org/2000/svg" xmlns:xlink="http://www.w3.org/1999/xlink" xml:space="preserve" style="fill-rule:evenodd;clip-rule:evenodd;stroke-linejoin:round;stroke-miterlimit:1.41421;">
    <g transform="matrix(2.09028,0,0,2.09028,-77.3545,-78.8499)">
        <circle cx="65.711" cy="66.426" r="28.704" style="fill:rgb(0,55,116);"/>
    </g>
    <g transform="matrix(2.0295,0,0,2.0295,-86.0163,-74.0534)">
        <path d="M71.947,58.104C75.473,51.404 82.526,51.404 86.052,54.754C89.578,58.104 89.578,64.804 86.052,71.504C83.583,76.529 77.236,81.554 71.947,84.904C66.657,81.554 60.31,76.529 57.842,71.504C54.316,64.804 54.316,58.104 57.842,54.754C61.368,51.404 68.421,51.404 71.947,58.104Z" style="fill:rgb(210,75,119);"/>
        <clipPath id="_clip1">
            <path d="M71.947,58.104C75.473,51.404 82.526,51.404 86.052,54.754C89.578,58.104 89.578,64.804 86.052,71.504C83.583,76.529 77.236,81.554 71.947,84.904C66.657,81.554 60.31,76.529 57.842,71.504C54.316,64.804 54.316,58.104 57.842,54.754C61.368,51.404 68.421,51.404 71.947,58.104Z"/>
        </clipPath>
        <g clip-path="url(#_clip1)">
            <g transform="matrix(0.492732,0,0,0.492732,42.383,36.4885)">
                <path d="M66.256,17.542C66.256,17.542 54.825,56.046 60,65.432C76.115,94.657 52.623,102.88 48.412,109.519C44.025,116.433 12.923,108.077 12.923,108.077L12.436,14.594L66.256,17.542Z" style="fill:rgb(235,76,128);"/>
            </g>
        </g>
        <path d="M71.947,58.104C75.473,51.404 82.526,51.404 86.052,54.754C89.578,58.104 89.578,64.804 86.052,71.504C83.583,76.529 77.236,81.554 71.947,84.904C66.657,81.554 60.31,76.529 57.842,71.504C54.316,64.804 54.316,58.104 57.842,54.754C61.368,51.404 68.421,51.404 71.947,58.104Z" style="fill:none;stroke-width:0.99px;stroke:rgb(247,75,119);"/>
    </g>
</svg>
